<?xml version="1.0" encoding="iso-8859-1"?>
<!-- Generator: Adobe Illustrator 19.0.0, SVG Export Plug-In . SVG Version: 6.00 Build 0)  -->
<svg xmlns="http://www.w3.org/2000/svg" xmlns:xlink="http://www.w3.org/1999/xlink" version="1.1" id="Capa_1" x="0px" y="0px" viewBox="0 0 232.484 232.484" style="enable-background:new 0 0 232.484 232.484;" xml:space="preserve" width="512px" height="512px">
<g>
	<path d="M99,125.274c0-7.269-5.892-13.161-13.161-13.161H72.161c-7.269,0-13.161,5.892-13.161,13.161v91.678   c0,7.269,5.892,13.161,13.161,13.161h13.678c7.269,0,13.161-5.892,13.161-13.161V125.274z" fill="#737373"/>
	<path d="M40,157.274c0-7.821-6.34-14.161-14.161-14.161H14.161C6.34,143.113,0,149.453,0,157.274v58.678   c0,7.821,6.34,14.161,14.161,14.161h11.678c7.821,0,14.161-6.34,14.161-14.161V157.274z" fill="#737373"/>
	<path d="M157,90.274c0-7.269-5.892-13.161-13.161-13.161h-13.678c-7.269,0-13.161,5.892-13.161,13.161v126.678   c0,7.269,5.892,13.161,13.161,13.161h13.678c7.269,0,13.161-5.892,13.161-13.161V90.274z" fill="#737373"/>
	<path d="M230.353,39.756L204.695,6.842c-2.215-2.842-5.365-4.472-8.642-4.472s-6.427,1.63-8.642,4.472l-25.658,32.913   c-2.201,2.823-2.741,5.922-1.481,8.501c1.373,2.812,4.669,4.49,8.813,4.49L176,52.765v164.562c0,7.257,5.912,12.786,13.169,12.786   h13.77c7.257,0,13.061-5.529,13.061-12.786V52.651l6.958,0.096c4.153,0,7.478-1.679,8.851-4.49   C233.069,45.677,232.554,42.579,230.353,39.756z" fill="#737373"/>
</g>
<g>
</g>
<g>
</g>
<g>
</g>
<g>
</g>
<g>
</g>
<g>
</g>
<g>
</g>
<g>
</g>
<g>
</g>
<g>
</g>
<g>
</g>
<g>
</g>
<g>
</g>
<g>
</g>
<g>
</g>
</svg>
