<?xml version="1.0" encoding="iso-8859-1"?>
<!-- Generator: Adobe Illustrator 18.0.0, SVG Export Plug-In . SVG Version: 6.00 Build 0)  -->
<!DOCTYPE svg PUBLIC "-//W3C//DTD SVG 1.1//EN" "http://www.w3.org/Graphics/SVG/1.1/DTD/svg11.dtd">
<svg xmlns="http://www.w3.org/2000/svg" xmlns:xlink="http://www.w3.org/1999/xlink" version="1.1" id="Capa_1" x="0px" y="0px" viewBox="0 0 488.601 488.601" style="enable-background:new 0 0 488.601 488.601;" xml:space="preserve" width="512px" height="512px">
<g id="XMLID_27_">
	<path id="XMLID_32_" d="M261.133,458.918c0,5.868,4.835,10.305,10.69,10.305h62.091c5.86,0,10.219-4.436,10.219-10.305v-47.695h-83   V458.918z" fill="#737373"/>
	<path id="XMLID_337_" d="M152.896,95.295c26.302,0,47.639-21.328,47.639-47.644C200.534,21.328,179.197,0,152.896,0   c-26.332,0-47.663,21.328-47.663,47.651C105.233,73.967,126.563,95.295,152.896,95.295z" fill="#737373"/>
	<path id="XMLID_418_" d="M222.792,238.222h-36.658c0,33,0,13.255,0,45.63c0,5.866-4.629,10.37-10.502,10.37   c-4.808,0-40.664,0-45.501,0c-5.86,0-10.996-4.504-10.996-10.37c0-29.978,0-24.358,0-45.507l-36.356,0.038l-17.641,83.514   c-0.666,3.127,0.176,6.15,2.186,8.642c2.022,2.483,5.111,3.684,8.296,3.684h19.514v129.924c0,13.511,10.979,24.455,24.5,24.455   c13.502,0,24.5-10.944,24.5-24.455V334.222h18v129.924c0,13.511,10.982,24.455,24.503,24.455c13.496,0,24.497-10.944,24.497-24.455   V334.222h19.008c3.203,0,6.243-1.2,8.252-3.684c2.017-2.491,2.798-5.7,2.131-8.827L222.792,238.222z" fill="#737373"/>
	<path id="XMLID_419_" d="M88.673,212.222h128.53l-4.795-22.668l13.883,20.829c3.058,4.607,8.108,7.746,13.552,8.741l51.29,9.269   V355.63c-17,5.217-29.706,20.592-29.882,39.592h83.234c-0.175-19-12.352-34.375-29.352-39.592V226.035   c4-2.966,6.877-7.259,7.835-12.487c1.398-7.777-1.835-15.158-7.835-19.663V52.5c0-6.751-5.249-12.228-12-12.228   s-12,5.476-12,12.228v134.457l-35.464-6.409l-44.508-66.732c-3.82-5.771-10.185-8.564-16.621-8.707l-83.167-0.225   c-7.611,0.152-14.837,4.387-18.197,11.758L25.221,265.512c-4.681,10.236-0.167,22.329,10.059,27   c10.33,4.699,22.346,0.122,26.996-10.077l20.929-45.672L88.673,212.222z" fill="#737373"/>
	<path id="XMLID_420_" d="M450.79,456.352c0.177-1.031,0.29-2.085,0.29-3.167c0-10.259-8.316-18.574-18.575-18.574   c-0.876,0-1.731,0.081-2.574,0.198c-2.75-7.409-9.677-12.773-18.032-12.773c-9.106,0-16.433,6.418-18.534,14.88   c-2.071-1.147-4.317-1.974-6.848-1.974c-7.926,0-14.362,6.431-14.362,14.358c0,2.534,0.83,4.786,1.979,6.849   c-8.634,0.414-15.554,7.221-15.554,15.961c0,9.003,7.302,16.112,16.299,16.112h74.05c8.991,0,16.299-7.109,16.299-16.112   C465.229,463.765,458.879,457.309,450.79,456.352z" fill="#737373"/>
</g>
<g>
</g>
<g>
</g>
<g>
</g>
<g>
</g>
<g>
</g>
<g>
</g>
<g>
</g>
<g>
</g>
<g>
</g>
<g>
</g>
<g>
</g>
<g>
</g>
<g>
</g>
<g>
</g>
<g>
</g>
</svg>
