<?xml version="1.0"?>
<svg xmlns="http://www.w3.org/2000/svg" height="512px" viewBox="0 0 512 512" width="512px"><path d="m241 150v33.761719c-17.421875 6.214843-30 22.707031-30 42.238281 0 24.8125 20.1875 45 45 45 8.277344 0 15 6.722656 15 15s-6.722656 15-15 15-15-6.722656-15-15h-30c0 19.53125 12.578125 36.023438 30 42.238281v33.761719h30v-33.761719c17.421875-6.214843 30-22.707031 30-42.238281 0-24.8125-20.1875-45-45-45-8.277344 0-15-6.722656-15-15s6.722656-15 15-15 15 6.722656 15 15h30c0-19.53125-12.578125-36.023438-30-42.238281v-33.761719zm0 0" fill="#484848"/><path d="m256 0v60c107.402344 0 196 88.597656 196 196 0 54.472656-21.292969 98.730469-56.800781 137.199219l-21-21-21.300781 105.902343 105.902343-21.300781-20.699219-20.703125c3.605469-5.476562 73.898438-70.546875 73.898438-180.097656 0-140.699219-115.300781-256-256-256zm0 0" fill="#484848"/><path d="m256 512v-60c-107.402344 0-196-88.601562-196-196 0-54.472656 21.292969-98.734375 56.800781-137.199219l21 21c.605469-3.023437 22.570313-112.214843 21.300781-105.902343-3.019531.609374-112.21875 22.570312-105.902343 21.300781l20.699219 20.699219c-5.761719 9.082031-73.898438 66.800781-73.898438 180.101562 0 140.699219 115.300781 256 256 256zm0 0" fill="#484848"/></svg>
