<?xml version="1.0" encoding="iso-8859-1"?>
<!-- Generator: Adobe Illustrator 19.0.0, SVG Export Plug-In . SVG Version: 6.00 Build 0)  -->
<svg xmlns="http://www.w3.org/2000/svg" xmlns:xlink="http://www.w3.org/1999/xlink" version="1.1" id="Layer_1" x="0px" y="0px" viewBox="0 0 512.001 512.001" style="enable-background:new 0 0 512.001 512.001;" xml:space="preserve" width="512px" height="512px">
<g>
	<g>
		<path d="M366.685,141.211c-7.854,2.227-14.522,7.181-19.955,14.834c6.856,19.692,20.832,59.593,27.791,79.457    c4.277-24.892,7.291-51.605,7.291-51.605S372.701,158.187,366.685,141.211z" fill="#484848"/>
	</g>
</g>
<g>
	<g>
		<circle cx="406.465" cy="93.612" r="35.054" fill="#484848"/>
	</g>
</g>
<g>
	<g>
		<path d="M511.044,277.705c-0.313-0.891-31.295-89.262-36.171-103.449c-6.315-18.376-16.073-29.457-29.076-33.084    c-7.122,20.096-14.796,41.751-14.796,41.751s8.537,57.908,17.15,109.262c0.875,5.095-3.055,9.711-8.175,9.711    c-16.715,0-50.296,0-67.021,0c-2.76,0-5.465-1.386-7.05-3.958c-6.713,3.243-13.989,3.986-20.776,2.566l-2.875,14.844    c1.281,6.612,0.876,12.537-2.849,18.646c0.941,4.48,4.858,7.478,9.182,7.478c3.638,0,8.02,0,12.906,0v122.687    c0,11.209,9.086,20.296,20.296,20.296s20.296-9.087,20.296-20.296V341.471c2.918,0,5.845,0,8.763,0v122.687    c0,11.209,9.086,20.296,20.296,20.296s20.296-9.087,20.296-20.296V341.471c4.887,0,9.269,0,12.906,0    c5.897,0,10.35-5.382,9.224-11.193c-25.944-133.95-23.129-118.641-24.008-125.821c10.483,30.03,28.575,81.633,29.559,84.441    c3.089,8.811,12.737,13.456,21.557,10.365C509.494,296.171,514.134,286.52,511.044,277.705z" fill="#484848"/>
	</g>
</g>
<g>
	<g>
		<path d="M380.183,139.844c7.452,21.03,3.573,10.079,14.68,41.426c8.853,0,14.822,0,22.74,0    c5.102-14.395,9.583-27.042,14.68-41.426C410.578,139.844,401.77,139.844,380.183,139.844z" fill="#484848"/>
	</g>
</g>
<g>
	<g>
		<circle cx="105.851" cy="93.612" r="35.054" fill="#484848"/>
	</g>
</g>
<g>
	<g>
		<path d="M170.071,315.409l-2.9-14.974c-2.247,0.493-4.568,0.755-6.933,0.755c-4.79,0-9.52-1.061-13.896-3.129    c-1.592,2.493-4.264,3.834-6.985,3.834c-16.715,0-50.296,0-67.021,0c-5.11,0-9.049-4.627-8.175-9.711    C79.924,200.453,76.286,224,81.192,183.897c-9.376-26.457-9.974-28.146-15.126-42.684c-12.934,3.668-22.646,14.733-28.939,33.045    C32.253,188.442,1.27,276.814,0.957,277.705c-3.09,8.814,1.55,18.466,10.366,21.557c8.811,3.09,18.466-1.549,21.557-10.365    c1-2.852,19.641-56.02,30.04-85.821c-1.088,8.895,2.045-8.18-24.176,127.201c-1.127,5.818,3.358,11.193,9.224,11.193    c3.638,0,8.02,0,12.906,0v122.687c0,11.209,9.086,20.296,20.296,20.296c11.21,0,20.296-9.087,20.296-20.296V341.471    c2.918,0,5.845,0,8.763,0v122.687c0,11.209,9.086,20.296,20.296,20.296c11.21,0,20.296-9.087,20.296-20.296V341.471    c4.887,0,9.269,0,12.906,0c4.345,0,8.268-3.006,9.192-7.514C169.166,327.789,168.827,321.836,170.071,315.409z" fill="#484848"/>
	</g>
</g>
<g>
	<g>
		<path d="M145.179,141.172c-12.359,34.872-10.406,29.364-14.797,41.751c4.816,39.374,3.159,27.841,7.308,51.98    c6.849-19.547,20.796-59.369,27.581-78.859C159.807,148.348,153.094,143.381,145.179,141.172z" fill="#484848"/>
	</g>
</g>
<g>
	<g>
		<path d="M79.565,139.844c7.452,21.03,3.573,10.079,14.68,41.426c8.852,0,14.822,0,22.74,0c5.102-14.395,9.583-27.042,14.68-41.426    C109.958,139.844,101.152,139.844,79.565,139.844z" fill="#484848"/>
	</g>
</g>
<g>
	<g>
		<path d="M368.854,262.324c-5.801-16.558-33.038-94.248-38.744-110.804c-0.05-0.146-0.102-0.296-0.148-0.429    c-5.545-16.134-14.929-31.105-31.365-35.69c-7.135,20.136-15.961,45.04-15.961,45.04s1.534,19.12,18.501,117.863    c0.944,5.495-3.293,10.475-8.819,10.475c-18.031,0-54.257,0-72.297,0c-5.512,0-9.762-4.991-8.819-10.475    c17.002-98.945,18.372-116.814,18.372-116.814s-8.552-24.131-16.318-46.046c-13.954,3.957-24.43,15.894-31.217,35.647    c-4.874,14.185-33.556,96.012-38.362,109.724c-4.561,13.012,1.505,21.962,10.526,25.125c9.513,3.331,19.917-1.667,23.254-11.181    c1.078-3.077,21.186-60.43,32.404-92.577l-26.079,137.216c-1.216,6.275,3.625,12.074,9.95,12.074c3.924,0,8.652,0,13.922,0    v132.346c0,12.092,9.802,21.894,21.894,21.894s21.894-9.802,21.894-21.894V331.472c3.148,0,6.307,0,9.454,0v132.346    c0,12.092,9.802,21.894,21.894,21.894s21.894-9.802,21.894-21.894V331.472c5.271,0,9.998,0,13.923,0    c6.269,0,11.18-5.725,9.95-12.074c-27.902-144.062-24.939-127.889-25.899-135.732c11.309,32.394,30.825,88.063,31.888,91.093    c3.81,10.86,16.65,15.568,26.602,9.614C368.059,280.236,372.061,271.479,368.854,262.324z" fill="#484848"/>
	</g>
</g>
<g>
	<g>
		<path d="M227.817,113.968c2.123,5.989,13.661,38.551,15.836,44.688c9.549,0,15.988,0,24.53,0    c5.526-15.593,10.308-29.087,15.836-44.688C262.733,113.968,251.074,113.968,227.817,113.968z" fill="#484848"/>
	</g>
</g>
<g>
	<g>
		<path d="M256.169,26.289c-20.884,0-37.813,16.929-37.813,37.813c0,21.018,17.088,37.813,37.813,37.813    c20.722,0,37.813-16.794,37.813-37.813C293.983,43.218,277.053,26.289,256.169,26.289z" fill="#484848"/>
	</g>
</g>
<g>
</g>
<g>
</g>
<g>
</g>
<g>
</g>
<g>
</g>
<g>
</g>
<g>
</g>
<g>
</g>
<g>
</g>
<g>
</g>
<g>
</g>
<g>
</g>
<g>
</g>
<g>
</g>
<g>
</g>
</svg>
