<svg height="512pt" viewBox="0 0 512 512" width="512pt" xmlns="http://www.w3.org/2000/svg"><path d="m512 80v170c0 44.113281-35.886719 80-80 80h-4c-11.046875 0-20-8.953125-20-20s8.953125-20 20-20h4c22.054688 0 40-17.945312 40-40v-87h-53v10c0 11.046875-8.953125 20-20 20s-20-8.953125-20-20v-60c0-11.046875 8.953125-20 20-20s20 8.953125 20 20v10h53v-43c0-22.054688-17.945312-40-40-40h-142v83h10c11.046875 0 20 8.953125 20 20s-8.953125 20-20 20h-60c-11.046875 0-20-8.953125-20-20s8.953125-20 20-20h10v-83h-55c-11.046875 0-20-8.953125-20-20s8.953125-20 20-20h237c44.113281 0 80 35.886719 80 80zm-185 210h-37v-38c0-11.046875-8.953125-20-20-20s-20 8.953125-20 20v200c0 11.027344-8.972656 20-20 20h-33c-11.046875 0-20 8.953125-20 20s8.953125 20 20 20h33c33.085938 0 60-26.914062 60-60v-122h37c11.046875 0 20-8.953125 20-20s-8.953125-20-20-20zm-146-48c0-11.046875-8.953125-20-20-20s-20 8.953125-20 20v11h-101v-173c0-22.054688 17.945312-40 40-40h15c11.046875 0 20-8.953125 20-20s-8.953125-20-20-20h-15c-44.113281 0-80 35.886719-80 80v352c0 44.113281 35.886719 80 80 80h16c11.046875 0 20-8.953125 20-20s-8.953125-20-20-20h-16c-22.054688 0-40-17.945312-40-40v-139h101v9c0 11.046875 8.953125 20 20 20s20-8.953125 20-20zm0 0"/></svg>