<?xml version="1.0"?>
<svg xmlns="http://www.w3.org/2000/svg" height="512px" viewBox="0 0 496 496" width="512px"><path d="m287.359375 48c-3.902344-27.097656-27.207031-48-55.359375-48h-176c-30.878906 0-56 25.121094-56 56v384c0 30.878906 25.121094 56 56 56h440v-448zm192.640625 112h-32v16h32v32h-192v-32h144v-16h-144v-96h192zm-208 32h-256v-32h256zm16 32h192v32h-192zm-232-208h176c22.054688 0 40 17.945312 40 40v40h-184v16h184v32h-256v-32h56v-16h-56v-40c0-22.054688 17.945312-40 40-40zm-40 192h256v184.207031c-6.703125-5.078125-14.960938-8.207031-24-8.207031h-192c-15.664062 0-29.824219 6.480469-40 16.878906zm40 272c-22.054688 0-40-17.945312-40-40s17.945312-40 40-40h192c13.230469 0 24 10.769531 24 24s-10.769531 24-24 24h-192c-4.40625 0-8-3.59375-8-8s3.59375-8 8-8h168v-16h-168c-13.230469 0-24 10.769531-24 24s10.769531 24 24 24h192c22.054688 0 40-17.945312 40-40v-152h192v208zm0 0" fill="#737373"/><path d="m240 416h16v16h-16zm0 0" fill="#737373"/></svg>
